# xmcd
#
# Track frame offsets: 
#        180
#        12346
#        25229
#        37736
#        50854
#        63890
#        77000
#        90990
#        103734
#        117042
#        128408
#        140354
#        154493
#        165485
#        178462
#        191938
#        203651
#        216316
#        231007
#        243851
#        257698
#
# Disc length: 3609 seconds
#
# Revision: 0
# Processed by: cddbd v1.5.2PL0 Copyright (c) Steve Scherf et al.
# Submitted via: ExactAudioCopy v0.95b4
#
DISCID=1a0e1715
DTITLE=Various Artist - 125 Blues Hits
DYEAR=2006
DGENRE=Blues
TTITLE0=B B King - Miss Martha King
TTITLE1=Mississippi John Hurt - Got the blues
TTITLE2=Jimmy Witherspoon - Good jumpin
TTITLE3=Blind Willie McTell - Love makin mama
TTITLE4=Kokomo Arnold - Fool man blues
TTITLE5=Big Joe Turner - Cherry red
TTITLE6=Alice Moore - I'm going fishing too
TTITLE7=Sleepy John Estes - New someday baby
TTITLE8=Dr Clayton - '41 Blues
TTITLE9=B B King - She's dynamite
TTITLE10=T-Bone Walker - Bobby sox blues
TTITLE11=Bessie Smith - Keeps on raining
TTITLE12=Sonny Terry - Harmonica Blues
TTITLE13=Big Joe Turner - Howlin winds
TTITLE14=Champion Jack Dupree - Cabbage greens no 1
TTITLE15=B B King - Take a swing with me
TTITLE16=Brownie McGhee - Be good to me
TTITLE17=Sonny Boy Williamson - Doggin my love around
TTITLE18=Big Bill Broonzy - It's your time now
TTITLE19=Leadbelly - Alabama bound
TTITLE20=Arthur Big Boy Crudup - You got to reap
EXTD=
EXTT0=
EXTT1=
EXTT2=
EXTT3=
EXTT4=
EXTT5=
EXTT6=
EXTT7=
EXTT8=
EXTT9=
EXTT10=
EXTT11=
EXTT12=
EXTT13=
EXTT14=
EXTT15=
EXTT16=
EXTT17=
EXTT18=
EXTT19=
EXTT20=
PLAYORDER=
